<svg xmlns="http://www.w3.org/2000/svg" viewBox="0 0 425.92 324.014"><title>oekostrom</title><path d="M38.749,271.045a25.014,25.014,0,0,1,8.677,5.691,26.12,26.12,0,0,1,5.626,8.708,31.35,31.35,0,0,1,0,22.148,25.835,25.835,0,0,1-5.666,8.707,25.4,25.4,0,0,1-8.717,5.69,29.651,29.651,0,0,1-11.093,2.025A29.863,29.863,0,0,1,16.4,321.989a25.382,25.382,0,0,1-8.716-5.69,25.8,25.8,0,0,1-5.666-8.707A29.484,29.484,0,0,1,0,296.517a29.092,29.092,0,0,1,1.981-10.808A25.8,25.8,0,0,1,7.607,277a26.518,26.518,0,0,1,8.717-5.843,28.671,28.671,0,0,1,11.252-2.139A29.874,29.874,0,0,1,38.749,271.045Zm6.5,17.52a19.032,19.032,0,0,0-3.844-6.371,17.761,17.761,0,0,0-6.022-4.259A19.432,19.432,0,0,0,27.5,276.39,19.163,19.163,0,0,0,19.81,277.9a18.071,18.071,0,0,0-6.022,4.183,18.68,18.68,0,0,0-3.923,6.37,23.945,23.945,0,0,0,0,16.057,19.418,19.418,0,0,0,3.883,6.407,17.4,17.4,0,0,0,5.983,4.223,19.37,19.37,0,0,0,7.766,1.507,18.965,18.965,0,0,0,7.765-1.546,18.279,18.279,0,0,0,6.023-4.259,19.108,19.108,0,0,0,3.922-6.407,23.709,23.709,0,0,0,.04-15.868Zm-28.21-34.2a4.4,4.4,0,0,1,6.181,0,4.208,4.208,0,0,1,1.267,3.09,4.493,4.493,0,0,1-1.188,3.13,4.081,4.081,0,0,1-3.17,1.308,4.075,4.075,0,0,1-3.169-1.308,4.489,4.489,0,0,1-1.189-3.13A4.2,4.2,0,0,1,17.037,254.361Zm14.858,0a4.336,4.336,0,0,1,3.129-1.268,4.078,4.078,0,0,1,3.051,1.268,4.274,4.274,0,0,1,1.229,3.09,4.411,4.411,0,0,1-1.229,3.13,4.019,4.019,0,0,1-3.051,1.308,4.466,4.466,0,0,1-4.437-4.438A4.14,4.14,0,0,1,31.9,254.361Z" style="fill:#6c8f00"/><path d="M78.765,316.882v7.132H57.846v-7.132h6.5V275.756h-6.5v-6.735H78.765v6.735H72.188v41.126Zm6.1-41.126v-6.735h20.524v6.735H99.764L81.935,294.338,100,316.882h6.5v7.132H84.946v-7.132h5.468L72.188,294.735l18.7-18.979Z" style="fill:#6c8f00"/><path d="M144.059,271.045a25,25,0,0,1,8.677,5.691,26.12,26.12,0,0,1,5.626,8.708,31.35,31.35,0,0,1,0,22.148A25.835,25.835,0,0,1,152.7,316.3a25.4,25.4,0,0,1-8.717,5.69,31.616,31.616,0,0,1-22.266,0A25.391,25.391,0,0,1,113,316.3a25.8,25.8,0,0,1-5.666-8.707,29.484,29.484,0,0,1-2.021-11.075,29.092,29.092,0,0,1,1.981-10.808A25.8,25.8,0,0,1,112.917,277a26.518,26.518,0,0,1,8.717-5.843,28.671,28.671,0,0,1,11.252-2.139A29.874,29.874,0,0,1,144.059,271.045Zm6.5,17.52a19.032,19.032,0,0,0-3.844-6.371,17.761,17.761,0,0,0-6.022-4.259,19.432,19.432,0,0,0-7.884-1.545,19.163,19.163,0,0,0-7.687,1.508,18.071,18.071,0,0,0-6.022,4.183,18.68,18.68,0,0,0-3.923,6.37,23.945,23.945,0,0,0,0,16.057,19.418,19.418,0,0,0,3.883,6.407,17.4,17.4,0,0,0,5.983,4.223,19.37,19.37,0,0,0,7.766,1.507,18.965,18.965,0,0,0,7.765-1.546,18.279,18.279,0,0,0,6.023-4.259,19.108,19.108,0,0,0,3.922-6.407,23.709,23.709,0,0,0,.04-15.868Z" style="fill:#6c8f00"/><path d="M164.027,304.766h6.894V309.5a15.144,15.144,0,0,0,4.693,5.3,12.3,12.3,0,0,0,7.4,2.238,10.526,10.526,0,0,0,4.095-.718,7.922,7.922,0,0,0,2.823-1.927,7.754,7.754,0,0,0,1.631-2.646,8.656,8.656,0,0,0,.518-2.948,7.8,7.8,0,0,0-.912-3.932,9.857,9.857,0,0,0-2.1-2.608,8.94,8.94,0,0,0-2.377-1.512q-1.188-.49-1.743-.718L175.2,296.9a19.334,19.334,0,0,1-5.348-2.52,15.026,15.026,0,0,1-3.487-3.285,11.343,11.343,0,0,1-1.863-3.743,14.692,14.692,0,0,1-.554-3.972,14.268,14.268,0,0,1,1.149-5.766,13.712,13.712,0,0,1,3.17-4.544,14.389,14.389,0,0,1,4.833-2.979,16.914,16.914,0,0,1,6.062-1.069,17.964,17.964,0,0,1,4.2.458,18.84,18.84,0,0,1,3.408,1.146,17.423,17.423,0,0,1,2.614,1.451,22.265,22.265,0,0,1,1.823,1.374v-4.429h6.418v16.115h-6.5v-3.9a16.432,16.432,0,0,0-5.19-4.021,13.579,13.579,0,0,0-6.063-1.463,11.938,11.938,0,0,0-2.971.376,7.733,7.733,0,0,0-2.654,1.239,6.36,6.36,0,0,0-1.9,2.216,6.833,6.833,0,0,0-.714,3.23,6.463,6.463,0,0,0,.674,3.118,7.485,7.485,0,0,0,1.664,2.1,7.624,7.624,0,0,0,2.219,1.354q1.227.488,2.337.862l9.509,3.207a22.167,22.167,0,0,1,6.142,3.056,15.313,15.313,0,0,1,3.645,3.742,11.748,11.748,0,0,1,1.743,4.125,20.777,20.777,0,0,1,.436,4.125,16.258,16.258,0,0,1-1.192,6.3,14.193,14.193,0,0,1-3.377,4.926,14.832,14.832,0,0,1-5.324,3.17,21.037,21.037,0,0,1-7.031,1.107q-1.035,0-2.425-.114a15.381,15.381,0,0,1-2.98-.574,19.34,19.34,0,0,1-3.337-1.336,15.153,15.153,0,0,1-3.416-2.406v4.43h-6.894Z" style="fill:#6c8f00"/><path d="M231.778,316.882h6.657v7.132H217.356v-7.132h6.578V275.756H213.078v14.58h-6.657V269.021h42.87v21.315h-6.577v-14.58H231.778Z" style="fill:#6c8f00"/><path d="M274.806,316.882v7.132H253.887v-7.132h6.5V275.756h-6.5v-6.735h23.534q.951,0,2.655.079a22.087,22.087,0,0,1,3.685.514,23.228,23.228,0,0,1,4.041,1.308,11.874,11.874,0,0,1,3.685,2.457,12.935,12.935,0,0,1,2.694,3.922,13.781,13.781,0,0,1,1.069,5.745,14.411,14.411,0,0,1-2.852,9.033,12.779,12.779,0,0,1-7.924,4.755l9.35,20.048h6.1v7.132H288.911L276.47,297.547h-8.241v19.335Zm-.317-25.357q1.98,0,4.2-.2a13.362,13.362,0,0,0,4.081-.99A7.457,7.457,0,0,0,285.821,288a6.792,6.792,0,0,0,1.188-4.239,7.555,7.555,0,0,0-1.386-4.873,7.958,7.958,0,0,0-3.329-2.456,13,13,0,0,0-3.961-.872q-2.022-.119-3.289-.119h-6.815v16.086Z" style="fill:#6c8f00"/><path d="M339.466,271.045a25.014,25.014,0,0,1,8.677,5.691,26.12,26.12,0,0,1,5.626,8.708,31.35,31.35,0,0,1,0,22.148A25.835,25.835,0,0,1,348.1,316.3a25.414,25.414,0,0,1-8.717,5.69,31.616,31.616,0,0,1-22.266,0,25.4,25.4,0,0,1-8.717-5.69,25.82,25.82,0,0,1-5.666-8.707,29.5,29.5,0,0,1-2.02-11.075,29.071,29.071,0,0,1,1.981-10.808A25.8,25.8,0,0,1,308.324,277a26.518,26.518,0,0,1,8.717-5.843,28.666,28.666,0,0,1,11.251-2.139A29.88,29.88,0,0,1,339.466,271.045Zm6.5,17.52a19.03,19.03,0,0,0-3.843-6.371,17.761,17.761,0,0,0-6.022-4.259,19.434,19.434,0,0,0-7.885-1.545,19.162,19.162,0,0,0-7.686,1.508,18.071,18.071,0,0,0-6.022,4.183,18.664,18.664,0,0,0-3.923,6.37,23.929,23.929,0,0,0,0,16.057,19.418,19.418,0,0,0,3.883,6.407,17.4,17.4,0,0,0,5.983,4.223,19.369,19.369,0,0,0,7.765,1.507,18.966,18.966,0,0,0,7.766-1.546A18.265,18.265,0,0,0,342,310.84a19.11,19.11,0,0,0,3.923-6.407,23.7,23.7,0,0,0,.039-15.868Z" style="fill:#6c8f00"/><path d="M370.528,316.882h7.845v7.132H356.978v-7.132h6.656V275.756h-6.656v-6.735h19.368l15.22,39.065,15.5-39.065h18.851v6.735h-6.735v41.126h6.735v7.132H404.364v-7.132h6.656v-41.2l-19.612,48.337h-1.6l-19.285-48.971Z" style="fill:#6c8f00"/><path d="M43.693,231.04v6.57H12.085v-6.57h11.9V192.4l-13.138,8.5L7.6,195.337,25.61,183.513H32.1V231.04Z" style="fill:#6c8f00"/><path d="M63.786,182.74a21.784,21.784,0,0,1,9,1.662,14.088,14.088,0,0,1,5.95,5.023,23.261,23.261,0,0,1,3.323,8.462,59.928,59.928,0,0,1,1.043,11.9q0,28.6-20.093,28.594-19.707,0-19.706-27.821T63.786,182.74ZM51.808,210.561q0,21.255,11.592,21.253a8.894,8.894,0,0,0,8.617-5.294q2.588-5.293,2.588-16.268,0-10.82-2.511-15.881t-8.772-5.062q-6.183,0-8.848,5.139T51.808,210.561Z" style="fill:#6c8f00"/><path d="M109,182.74a21.779,21.779,0,0,1,9,1.662,14.1,14.1,0,0,1,5.951,5.023,23.261,23.261,0,0,1,3.322,8.462,59.923,59.923,0,0,1,1.044,11.9q0,28.6-20.093,28.594-19.707,0-19.707-27.821T109,182.74ZM97.016,210.561q0,21.255,11.592,21.253a8.892,8.892,0,0,0,8.617-5.294q2.589-5.293,2.589-16.268,0-10.82-2.512-15.881t-8.771-5.062q-6.183,0-8.849,5.139T97.016,210.561Z" style="fill:#6c8f00"/><path d="M145.394,209.788a11.906,11.906,0,0,1-8.811-3.246q-3.246-3.245-3.246-9.814a17.54,17.54,0,0,1,.928-5.873,12.1,12.1,0,0,1,2.628-4.406,11.844,11.844,0,0,1,3.98-2.743,12.863,12.863,0,0,1,5.062-.966,11.8,11.8,0,0,1,8.848,3.362q3.284,3.361,3.284,9.93t-3.516,10.162A12.244,12.244,0,0,1,145.394,209.788Zm.309-22.025q-6.57,0-6.569,8.5t6.569,8.5q6.567,0,6.568-8.5T145.7,187.763Zm-3.865,49.847,31.3-54.1h6.956l-31.3,54.1Zm34.081.772a11.908,11.908,0,0,1-8.81-3.245q-3.246-3.246-3.245-9.816a17.57,17.57,0,0,1,.927-5.873,12.117,12.117,0,0,1,2.627-4.405,11.849,11.849,0,0,1,3.98-2.743,12.846,12.846,0,0,1,5.062-.966,11.8,11.8,0,0,1,8.849,3.361q3.283,3.363,3.284,9.931t-3.516,10.163A12.244,12.244,0,0,1,175.919,238.382Zm.31-22.024q-6.57,0-6.569,8.5t6.569,8.5q6.567,0,6.568-8.5T176.229,216.358Z" style="fill:#6c8f00"/><path d="M360.105,27.327c39.64,31.49,56.633,86.6,40.278,134.776-15.135,46.876-59.183,81.637-108.415,84.852-30.991,2.689-60.846-7.207-85.656-25.5,5.1-5.129,10.34-10.007,15.718-14.858,13.832,8.926,28.524,15.745,44.907,18.378,42.8,6.9,88.095-16.022,107.111-55.191,20.347-39.723,11.394-90.729-21.566-120.916-30.964-29.634-79.724-35.843-117.451-15.773-26.418,13.638-44.547,37.893-52.5,66.307,17.353-10.09,37.007-12.973,56.8-14.248,28.552.443,59.488,13,80.334,32.571,16.577,15.8,23.036,36.508,25.669,58.684-10.922-7.845-23.174-12.031-36.757-10.284-19.349,2.91-39.779,6.93-58.74-.444-17.3-7.706-32.044-21.9-41.386-38.309,12.585-7.291,26.778-16.023,41.885-14.942,16.245,1.58,32.877,10.423,47.957,16.355-16.8-11.365-40.749-26.029-61.761-20.873-26.806,5.461-52.031,20.291-76.952,31.1-1.636-20.513,0-40.86,7.762-60.1a123.82,123.82,0,0,1,70.52-70.687C278.5-7.656,326.231-.144,360.105,27.327Z" style="fill:#6c8f00"/></svg>